<?xml version="1.0" encoding="UTF-8" standalone="no"?>
<!-- Created with Inkscape (http://www.inkscape.org/) -->

<svg
   xmlns:dc="http://purl.org/dc/elements/1.1/"
   xmlns:cc="http://creativecommons.org/ns#"
   xmlns:rdf="http://www.w3.org/1999/02/22-rdf-syntax-ns#"
   xmlns:svg="http://www.w3.org/2000/svg"
   xmlns="http://www.w3.org/2000/svg"
   xmlns:sodipodi="http://sodipodi.sourceforge.net/DTD/sodipodi-0.dtd"
   xmlns:inkscape="http://www.inkscape.org/namespaces/inkscape"
   version="1.1"
   id="svg2"
   xml:space="preserve"
   width="666.66669"
   height="666.66669"
   viewBox="0 0 666.66669 666.66669"
   sodipodi:docname="272484-P5VVD2-254.svg"
   inkscape:version="0.92.4 (5da689c313, 2019-01-14)"><metadata
     id="metadata8"><rdf:RDF><cc:Work
         rdf:about=""><dc:format>image/svg+xml</dc:format><dc:type
           rdf:resource="http://purl.org/dc/dcmitype/StillImage" /><dc:title></dc:title></cc:Work></rdf:RDF></metadata><defs
     id="defs6"><clipPath
       clipPathUnits="userSpaceOnUse"
       id="clipPath18"><path
         d="M 0,500 H 500 V 0 H 0 Z"
         id="path16"
         inkscape:connector-curvature="0" /></clipPath><clipPath
       clipPathUnits="userSpaceOnUse"
       id="clipPath26"><path
         d="M 0,500 H 500 V 0 H 0 Z"
         id="path24"
         inkscape:connector-curvature="0" /></clipPath><clipPath
       clipPathUnits="userSpaceOnUse"
       id="clipPath40"><path
         d="M 0,500 H 500 V 0 H 0 Z"
         id="path38"
         inkscape:connector-curvature="0" /></clipPath><clipPath
       clipPathUnits="userSpaceOnUse"
       id="clipPath92"><path
         d="M 0,500 H 500 V 0 H 0 Z"
         id="path90"
         inkscape:connector-curvature="0" /></clipPath><clipPath
       clipPathUnits="userSpaceOnUse"
       id="clipPath114"><path
         d="m 179.697,381.207 c 0,-5.26 4.264,-9.523 9.523,-9.523 v 0 c 5.26,0 9.524,4.263 9.524,9.523 v 0 c 0,5.26 -4.264,9.523 -9.524,9.523 v 0 c -5.259,0 -9.523,-4.263 -9.523,-9.523"
         id="path112"
         inkscape:connector-curvature="0" /></clipPath><clipPath
       clipPathUnits="userSpaceOnUse"
       id="clipPath142"><path
         d="M 0,500 H 500 V 0 H 0 Z"
         id="path140"
         inkscape:connector-curvature="0" /></clipPath><clipPath
       clipPathUnits="userSpaceOnUse"
       id="clipPath166"><path
         d="M 0,500 H 500 V 0 H 0 Z"
         id="path164"
         inkscape:connector-curvature="0" /></clipPath><clipPath
       clipPathUnits="userSpaceOnUse"
       id="clipPath190"><path
         d="M 0,500 H 500 V 0 H 0 Z"
         id="path188"
         inkscape:connector-curvature="0" /></clipPath><clipPath
       clipPathUnits="userSpaceOnUse"
       id="clipPath208"><path
         d="M 0,500 H 500 V 0 H 0 Z"
         id="path206"
         inkscape:connector-curvature="0" /></clipPath><clipPath
       clipPathUnits="userSpaceOnUse"
       id="clipPath226"><path
         d="M 0,500 H 500 V 0 H 0 Z"
         id="path224"
         inkscape:connector-curvature="0" /></clipPath><clipPath
       clipPathUnits="userSpaceOnUse"
       id="clipPath242"><path
         d="M 0,500 H 500 V 0 H 0 Z"
         id="path240"
         inkscape:connector-curvature="0" /></clipPath><clipPath
       clipPathUnits="userSpaceOnUse"
       id="clipPath250"><path
         d="m 236.51,354.399 h 30.358 v -6.44 H 236.51 Z"
         id="path248"
         inkscape:connector-curvature="0" /></clipPath><clipPath
       clipPathUnits="userSpaceOnUse"
       id="clipPath266"><path
         d="M 155.496,439.556 H 269.469 V 89.6494 H 155.496 Z"
         id="path264"
         inkscape:connector-curvature="0" /></clipPath><clipPath
       clipPathUnits="userSpaceOnUse"
       id="clipPath282"><path
         d="M 0,500 H 500 V 0 H 0 Z"
         id="path280"
         inkscape:connector-curvature="0" /></clipPath></defs><sodipodi:namedview
     pagecolor="#ffffff"
     bordercolor="#666666"
     borderopacity="1"
     objecttolerance="10"
     gridtolerance="10"
     guidetolerance="10"
     inkscape:pageopacity="0"
     inkscape:pageshadow="2"
     inkscape:window-width="1366"
     inkscape:window-height="745"
     id="namedview4"
     showgrid="false"
     inkscape:zoom="0.50063159"
     inkscape:cx="261.98225"
     inkscape:cy="277.43877"
     inkscape:window-x="-8"
     inkscape:window-y="-8"
     inkscape:window-maximized="1"
     inkscape:current-layer="g86" /><g
     id="g10"
     inkscape:groupmode="layer"
     inkscape:label="272484-P5VVD2-254"
     transform="matrix(1.3333333,0,0,-1.3333333,0,666.66667)"><g
       id="g34"><g
         id="g36"
         clip-path="url(#clipPath40)"><g
           id="g42"
           transform="translate(317.3076,59.5967)"><path
             d="m 0,0 h -134.615 c -15.553,0 -28.162,12.608 -28.162,28.162 v 324.483 c 0,15.553 12.609,28.162 28.162,28.162 H 0 c 15.554,0 28.162,-12.609 28.162,-28.162 V 28.162 C 28.162,12.608 15.554,0 0,0"
             style="fill:#818284;fill-opacity:1;fill-rule:nonzero;stroke:none"
             id="path44"
             inkscape:connector-curvature="0" /></g><g
           id="g46"
           transform="translate(316.2568,62.4834)"><path
             d="m 0,0 h -132.121 c -15.553,0 -28.162,12.608 -28.162,28.161 V 347.67 c 0,15.554 12.609,28.162 28.162,28.162 H 0 c 15.553,0 28.161,-12.608 28.161,-28.162 V 28.161 C 28.161,12.608 15.553,0 0,0"
             style="fill:#010101;fill-opacity:1;fill-rule:nonzero;stroke:none"
             id="path48"
             inkscape:connector-curvature="0" /></g><path
           d="M 339.433,93.017 H 161.379 v 315.902 h 178.054 z"
           style="fill:#ffffff;fill-opacity:1;fill-rule:nonzero;stroke:none"
           id="path50"
           inkscape:connector-curvature="0" /><g
           id="g52"
           transform="translate(268.2109,420.1294)"><path
             d="m 0,0 h -37.589 c -0.728,0 -1.319,0.591 -1.319,1.319 0,0.728 0.591,1.319 1.319,1.319 H 0 C 0.729,2.638 1.318,2.047 1.318,1.319 1.318,0.591 0.729,0 0,0"
             style="fill:#535353;fill-opacity:1;fill-rule:nonzero;stroke:none"
             id="path54"
             inkscape:connector-curvature="0" /></g><path
           d="m 197.056,81.184 h -7.145 v 0.978 h 7.145 z"
           style="fill:#ffffff;fill-opacity:1;fill-rule:nonzero;stroke:none"
           id="path56"
           inkscape:connector-curvature="0" /><path
           d="m 253.386,76.104 h -5.596 v 5.517 h 5.596 z"
           style="fill:none;stroke:#ffffff;stroke-width:0.75;stroke-linecap:round;stroke-linejoin:round;stroke-miterlimit:10;stroke-dasharray:none;stroke-opacity:1"
           id="path58"
           inkscape:connector-curvature="0" /><g
           id="g60"
           transform="translate(303.4209,81.959)"><path
             d="m 0,0 -2.577,-2.578 c -0.389,-0.388 -0.389,-1.017 0,-1.405 L 0,-6.561"
             style="fill:none;stroke:#ffffff;stroke-width:0.75;stroke-linecap:round;stroke-linejoin:round;stroke-miterlimit:10;stroke-dasharray:none;stroke-opacity:1"
             id="path62"
             inkscape:connector-curvature="0" /></g><path
           d="M 339.867,397.825 H 160.868 v 11.097 h 178.999 z"
           style="fill:#027fcc;fill-opacity:1;fill-rule:nonzero;stroke:none"
           id="path64"
           inkscape:connector-curvature="0" /><g
           id="g66"
           transform="translate(306.96,403.0049)"><path
             d="m 0,0 c 0.326,0 0.59,-0.264 0.59,-0.589 0,-0.327 -0.264,-0.59 -0.59,-0.59 -0.325,0 -0.589,0.263 -0.589,0.59 C -0.589,-0.264 -0.325,0 0,0"
             style="fill:#ffffff;fill-opacity:1;fill-rule:nonzero;stroke:none"
             id="path68"
             inkscape:connector-curvature="0" /></g><g
           id="g70"
           transform="translate(308.3701,403.8369)"><path
             d="M 0,0 C -0.01,0.008 -0.019,0.017 -0.026,0.025 L -0.054,0.05 C -0.058,0.055 -0.063,0.058 -0.068,0.062 -0.831,0.755 -1.998,0.728 -2.727,0 l -0.086,-0.085 -0.118,-0.119 c -0.143,-0.144 -0.142,-0.378 10e-4,-0.523 0.145,-0.145 0.379,-0.145 0.523,0 l 0.205,0.204 c 0.463,0.462 1.216,0.462 1.678,0 l 0.146,-0.143 c 0.145,-0.143 0.376,-0.143 0.52,0.001 0.069,0.069 0.107,0.162 0.107,0.259 0,0.098 -0.038,0.19 -0.105,0.259 z"
             style="fill:#ffffff;fill-opacity:1;fill-rule:nonzero;stroke:none"
             id="path72"
             inkscape:connector-curvature="0" /></g><g
           id="g74"
           transform="translate(309.374,404.5659)"><path
             d="M 0,0 -0.121,0.122 C -0.122,0.124 -0.122,0.124 -0.124,0.124 L -0.22,0.221 C -0.236,0.238 -0.256,0.253 -0.275,0.265 -1.518,1.356 -3.41,1.323 -4.613,0.165 -4.618,0.16 -4.624,0.156 -4.631,0.151 l -0.222,-0.222 c -0.131,-0.131 -0.129,-0.344 10e-4,-0.476 0.132,-0.132 0.346,-0.133 0.477,-0.002 l 0.222,0.221 c 10e-4,0.002 0.002,0.004 0.004,0.006 0.973,0.94 2.517,0.945 3.498,0.018 l 0.174,-0.174 c 0.132,-0.131 0.346,-0.13 0.476,0.001 C 0.131,-0.344 0.132,-0.131 0,0"
             style="fill:#ffffff;fill-opacity:1;fill-rule:nonzero;stroke:none"
             id="path76"
             inkscape:connector-curvature="0" /></g></g></g><g
       id="g86"><g
         id="g88"
         clip-path="url(#clipPath92)"><g
           id="g94"
           transform="translate(327.1172,404.9248)"><path
             d="M 0,0 5.835,0.01 5.84,-2.908 0.004,-2.914 Z m 7.71,0.346 -8.022,-0.013 0.003,-3.584 8.024,0.013 z m -7.875,-3.897 c -0.257,-10e-4 -0.464,0.191 -0.464,0.426 l -0.006,3.334 c 0,0.233 0.209,0.425 0.461,0.426 L 7.567,0.648 C 7.821,0.646 8.028,0.457 8.032,0.223 l -10e-4,-0.69 0.597,0.004 0.005,-1.966 -0.598,-0.003 0.002,-0.681 c 0,-0.234 -0.208,-0.424 -0.463,-0.425 z"
             style="fill:#f8f8f6;fill-opacity:1;fill-rule:nonzero;stroke:none"
             id="path96"
             inkscape:connector-curvature="0" /></g><path
           d="M 339.903,365.398 H 160.868 v 32.481 h 179.035 z"
           style="fill:#0084ff;fill-opacity:1;fill-rule:nonzero;stroke:none"
           id="path98"
           inkscape:connector-curvature="0" /><g
           id="g100"
           transform="translate(170.6699,383.7969)"><path
             d="m 0,0 -3.463,-3.065 3.382,-3.066"
             style="fill:none;stroke:#ffffff;stroke-width:1;stroke-linecap:round;stroke-linejoin:round;stroke-miterlimit:10;stroke-dasharray:none;stroke-opacity:1"
             id="path102"
             inkscape:connector-curvature="0" /></g><g
           id="g104"
           transform="translate(167.4077,380.686)"><path
             d="M 0,0 H 8.869"
             style="fill:none;stroke:#ffffff;stroke-width:1;stroke-linecap:round;stroke-linejoin:round;stroke-miterlimit:10;stroke-dasharray:none;stroke-opacity:1"
             id="path106"
             inkscape:connector-curvature="0" /></g></g></g><g
       id="g108"><g
         id="g110"
         clip-path="url(#clipPath114)"><g
           id="g116"
           transform="translate(198.7441,381.207)"><path
             d="m 0,0 c 0,-5.26 -4.264,-9.523 -9.523,-9.523 -5.26,0 -9.524,4.263 -9.524,9.523 0,5.26 4.264,9.524 9.524,9.524 C -4.264,9.524 0,5.26 0,0"
             style="fill:#e2e7ea;fill-opacity:1;fill-rule:nonzero;stroke:none"
             id="path118"
             inkscape:connector-curvature="0" /></g><g
           id="g120"
           transform="translate(192.6533,381.5303)"><path
             d="m 0,0 c 0,-1.867 -1.513,-3.38 -3.38,-3.38 -1.867,0 -3.38,1.513 -3.38,3.38 0,1.867 1.513,3.38 3.38,3.38 C -1.513,3.38 0,1.867 0,0"
             style="fill:#ffffff;fill-opacity:1;fill-rule:nonzero;stroke:none"
             id="path122"
             inkscape:connector-curvature="0" /></g><g
           id="g124"
           transform="translate(183.1816,373.498)"><path
             d="m 0,0 c 0,0 1.297,3.565 6.008,3.565 4.711,0 6.008,-3.301 6.008,-3.301 0,0 -1.518,-2.377 -5.309,-2.473 C 1.781,-2.335 0,0 0,0"
             style="fill:#ffffff;fill-opacity:1;fill-rule:nonzero;stroke:none"
             id="path126"
             inkscape:connector-curvature="0" /></g></g></g><g
       id="g136"><g
         id="g138"
         clip-path="url(#clipPath142)"><path
           d="m 331.359,385.215 h -2.646 v 2.867 h 2.646 z"
           style="fill:#ffffff;fill-opacity:1;fill-rule:nonzero;stroke:none"
           id="path144"
           inkscape:connector-curvature="0" /><path
           d="m 331.359,380.473 h -2.646 v 2.867 h 2.646 z"
           style="fill:#ffffff;fill-opacity:1;fill-rule:nonzero;stroke:none"
           id="path146"
           inkscape:connector-curvature="0" /><path
           d="m 331.359,375.29 h -2.646 v 2.867 h 2.646 z"
           style="fill:#ffffff;fill-opacity:1;fill-rule:nonzero;stroke:none"
           id="path148"
           inkscape:connector-curvature="0" /><g
           id="g150"
           transform="translate(166.4727,329.9922)"><path
             d="m 0,0 h 88.486 c 4.108,0 7.438,-3.33 7.438,-7.437 v -16.999 c 0,-4.107 -3.33,-7.437 -7.438,-7.437 h -73.46 c -4.107,0 -7.437,3.33 -7.437,7.437 V -9.41 Z"
             style="fill:#eaeaea;fill-opacity:1;fill-rule:nonzero;stroke:none"
             id="path152"
             inkscape:connector-curvature="0" /></g></g></g><g
       id="g160"><g
         id="g162"
         clip-path="url(#clipPath166)"><g
           id="g168"
           transform="translate(193.4292,306.8823)"><path
             d="M 0,0 -1.961,-1.961"
             style="fill:#3a3a3a;fill-opacity:1;fill-rule:nonzero;stroke:none"
             id="path170"
             inkscape:connector-curvature="0" /></g><g
           id="g172"
           transform="translate(337.2236,288.2993)"><path
             d="m 0,0 h -137.649 c -4.666,0 -8.448,-3.782 -8.448,-8.447 v -29.311 c 0,-4.665 3.782,-8.448 8.448,-8.448 h 120.583 c 4.665,0 8.446,3.783 8.446,8.448 v 27.07 z"
             style="fill:#0085fe;fill-opacity:1;fill-rule:nonzero;stroke:none"
             id="path174"
             inkscape:connector-curvature="0" /></g></g></g><g
       id="g184"><g
         id="g186"
         clip-path="url(#clipPath190)"><g
           id="g192"
           transform="translate(169.5122,230.2822)"><path
             d="m 0,0 h 121.651 c 4.107,0 7.437,-3.33 7.437,-7.437 v -17 c 0,-4.107 -3.33,-7.437 -7.437,-7.437 H 15.026 c -4.107,0 -7.437,3.33 -7.437,7.437 V -9.41 Z"
             style="fill:#eaeaea;fill-opacity:1;fill-rule:nonzero;stroke:none"
             id="path194"
             inkscape:connector-curvature="0" /></g></g></g><g
       id="g202"><g
         id="g204"
         clip-path="url(#clipPath208)"><g
           id="g210"
           transform="translate(172.2183,152.4502)"><path
             d="m 0,0 h 121.651 c 4.107,0 7.437,-3.329 7.437,-7.437 v -16.999 c 0,-4.107 -3.33,-7.437 -7.437,-7.437 H 15.026 c -4.107,0 -7.437,3.33 -7.437,7.437 V -9.41 Z"
             style="fill:#eaeaea;fill-opacity:1;fill-rule:nonzero;stroke:none"
             id="path212"
             inkscape:connector-curvature="0" /></g></g></g><g
       id="g220"><g
         id="g222"
         clip-path="url(#clipPath226)"><g
           id="g228"
           transform="translate(336.9951,188.3242)"><path
             d="m 0,0 h -88.486 c -4.107,0 -7.437,-3.33 -7.437,-7.437 v -7.892 c 0,-4.108 3.33,-7.437 7.437,-7.437 h 73.461 c 4.107,0 7.436,3.329 7.436,7.437 v 5.919 z"
             style="fill:#0085fe;fill-opacity:1;fill-rule:nonzero;stroke:none"
             id="path230"
             inkscape:connector-curvature="0" /></g></g></g></g></svg>